<?xml version="1.0" encoding="utf-8"?>
<!-- Generator: Adobe Illustrator 27.9.0, SVG Export Plug-In . SVG Version: 6.00 Build 0)  -->
<svg version="1.1" id="Calque_1" xmlns="http://www.w3.org/2000/svg" xmlns:xlink="http://www.w3.org/1999/xlink" x="0px" y="0px"
	 viewBox="0 0 564 176" style="enable-background:new 0 0 564 176;" xml:space="preserve">
<style type="text/css">
	.st0{fill:#FFFFFF;}
</style>
<g>
	<g>
		<g>
			<path class="st0" d="M184.1,62.8c0-4.2-0.5-8.3-1.5-12.3l58.2-45.2l-62,35c-0.6-1.3-1.4-2.6-2.1-3.9l36.2-30.6l-43.9,22
				l-36.9,32.1l37.6-20.1c3.8,6.8,5.9,14.7,5.9,23c0,26.2-21,47.4-47,47.4c-3.2,0-6.3-0.3-9.3-0.9l46.9-35.7l-64.7,35.2
				c8,4.3,17.3,6.7,27.1,6.7C159.3,115.7,184.1,92,184.1,62.8"/>
			<path class="st0" d="M78.2,84.8c0.8,1.6,1.6,3.1,2.5,4.6l-38.6,31.1L88,97.8l36.9-33.1L87.3,85.3c-3.6-6.7-5.6-14.4-5.6-22.5
				c0-26.2,21-47.4,47-47.4c2.8,0,5.6,0.2,8.3,0.7l0.4,0.5L90.7,51.2l65.1-34.4c-7.9-4.1-17.5-6.7-27.2-6.7
				c-30.6,0-55.5,23.6-55.5,52.7c0,4.1,0.5,8.2,1.5,12.1l-58.3,45L78.2,84.8L78.2,84.8z"/>
		</g>
	</g>
</g>
<polygon class="st0" points="99.4,106.8 146.3,68.7 89.6,99.9 69.2,120.9 "/>
<polygon class="st0" points="167.5,25.5 187.3,5.3 157.9,18.7 111.9,55.8 "/>
<polygon class="st0" points="21,153.6 13,139.4 7.7,139.4 7.7,170.4 12.7,170.4 12.7,148.5 20.8,162.8 21,162.8 29.2,148.5 
	29.2,170.4 34.3,170.4 34.3,139.4 28.9,139.4 "/>
<rect x="40.8" y="139.4" class="st0" width="5.1" height="30.9"/>
<polygon class="st0" points="70.8,160 57.1,139.4 52.4,139.4 52.4,170.4 57.4,170.4 57.4,149 71.4,170.4 75.8,170.4 75.8,139.4 
	70.8,139.4 "/>
<polygon class="st0" points="87.1,157 99.9,157 99.9,152.5 87.1,152.5 87.1,144 101.5,144 101.5,139.4 82,139.4 82,170.4 
	101.7,170.4 101.7,165.6 87.1,165.6 "/>
<g>
	<g>
		<g>
			<path class="st0" d="M117.3,152.6c-5.3-2-6.4-3.2-6.4-5.4l0,0c0-2,1.7-3.6,4.5-3.6c2.5,0,4.8,1.2,6.9,2.9l2.9-3.9
				c-2.8-2.5-6.1-3.6-9.7-3.6c-5.8,0-9.8,3.6-9.8,8.7v0.1c0,5,3,7.1,8.9,9.3c4.9,1.8,5.9,3.1,5.9,5l0,0c0,2.3-1.9,3.9-4.9,3.9
				c-3.3,0-5.8-1.6-8.1-3.7l-3.1,3.8c3.4,3.1,7.2,4.5,11.2,4.5c5.8,0,10-3.5,10-8.9v-0.1C125.7,157.1,123,154.9,117.3,152.6"/>
			<path class="st0" d="M157.3,149.9c0,3.4-2.3,5.8-6.2,5.8h-4.5V144h4.5C155,144,157.3,146.1,157.3,149.9L157.3,149.9z
				 M162.5,149.6c0-6.4-4.4-10.3-11.1-10.3h-9.9v30.9h5.1v-10h4.5C157.4,160.1,162.5,156.6,162.5,149.6L162.5,149.6L162.5,149.6z"/>
		</g>
	</g>
</g>
<path class="st0" d="M171,158.5l4.4-12.4l4.4,12.4H171L171,158.5z M173.1,139.2l-11.4,31.1h5.2l2.6-7.3h12l2.6,7.3h5.4l-11.4-31.1
	H173.1L173.1,139.2z"/>
<g>
	<g>
		<g>
			<path class="st0" d="M204,154.9h-5.5v-10.7h5.6c3.8,0,6.1,1.8,6.1,5.3v0.1C210.2,152.6,208,154.9,204,154.9 M215.4,149.2V149
				c0-2.8-0.9-5.2-2.6-6.8c-1.9-1.9-4.7-2.9-8.3-2.9h-11.2v30.9h5.1v-10.9h5c0.1,0,0.2,0,0.3,0l6.6,11h5.9l-7.3-12
				C212.7,157,215.4,154,215.4,149.2"/>
		</g>
	</g>
</g>
<rect x="220.8" y="139.4" class="st0" width="5.1" height="30.9"/>
<g>
	<g>
		<g>
			<path class="st0" d="M243,152.6c-5.3-2-6.4-3.2-6.4-5.4l0,0c0-2,1.7-3.6,4.5-3.6c2.5,0,4.8,1.2,6.9,2.9l2.9-3.9
				c-2.8-2.5-6.1-3.6-9.7-3.6c-5.8,0-9.8,3.6-9.8,8.7v0.1c0,5,3,7.1,8.9,9.3c4.9,1.8,5.9,3.1,5.9,5l0,0c0,2.3-1.9,3.9-4.9,3.9
				c-3.3,0-5.8-1.6-8.1-3.7l-3.1,3.8c3.4,3.1,7.2,4.5,11.2,4.5c5.8,0,10-3.5,10-8.9v-0.1C251.4,157.1,248.7,154.9,243,152.6"/>
		</g>
	</g>
</g>
<rect x="293.5" y="54" class="st0" width="2.6" height="81.3"/>
<g>
	<g>
		<g>
			<path class="st0" d="M361.7,89.8h-14.4V66h14.4c8.3,0,12.5,5,12.5,11.9S369.9,89.8,361.7,89.8 M361.9,59.2h-22v64.2h7.4V96.5
				h14.6c12.3,0,20-7.9,20-18.8S374.2,59.2,361.9,59.2"/>
			<path class="st0" d="M415.5,88.8l-6.9-3.4c-5.7-2.8-10.1-5-10.1-10.8c0-6.3,5.3-9.3,11.1-9.3s11,2.9,14.3,8.1l5.4-4.2
				c-3.9-6.3-11.1-10.9-19.7-10.9c-10.2,0-18.9,6.5-18.9,16.7c0,9,6.8,13.6,14.2,17.2l7,3.4c6.2,3,10.5,5.4,10.5,11.3
				c0,6.5-5.2,10.7-12.6,10.7c-8.1,0-13.7-5-17.5-11l-5.5,4.2c4.8,8.5,13.1,13.8,23.1,13.8c11.6,0,20.2-7.1,20.2-17.9
				C430.1,97.9,424.6,93.2,415.5,88.8"/>
		</g>
	</g>
</g>
<polygon class="st0" points="450.7,59.2 443.3,59.2 443.3,123.4 480.4,123.4 480.4,116.7 450.7,116.7 "/>
<g>
	<g>
		<g>
			<path class="st0" d="M555.4,83.8c-1.3-5.9-4.3-11.1-8.4-15.3l8.4-8.4V83.8z M555.4,121.8l-8.4-8.4c4.1-4.2,7.1-9.4,8.4-15.3
				V121.8L555.4,121.8z M529.9,122.3c6.3-1.2,12-4.2,16.4-8.5l8.5,8.5H529.9z M506,116.3l17.9-13c-8,0.1-14.8,5-17.8,11.9l-0.3,1
				c-1.2-0.9-2.3-1.8-3.4-2.8l6.5-6.5l-1.4,4.2c3.7-5.2,9.8-8.6,16.7-8.6c2.1,0,4.1,0.3,6,0.9c-3.7-2.9-6.2-7.5-6.2-12.6
				s2.3-9.4,5.9-12.4l0.1,0.3l0,0l0.1,0.4c2.4-2,5.4-3.2,8.7-3.5l-5.8,5.8h-2l-0.7-2.3c-3.4,2.8-5.5,7-5.5,11.7
				c0,7.8,6,14.3,13.6,15.1l0.9,0.9c-1.1,0-2.2-0.2-3.3-0.5c1.8,1.3,3.5,2.9,4.8,4.8l-1.4-4.2l0,0l6.5,6.5c-1.1,1-2.2,2-3.4,2.8
				l-0.4-1.2c-3-6.8-9.7-11.6-17.6-11.7l17.7,13.1c-5.1,3.6-11.3,5.7-18,5.7S511.1,119.9,506,116.3 M493.3,122.3l8.5-8.5
				c4.5,4.3,10.1,7.3,16.4,8.5H493.3z M492.7,98c1.4,5.9,4.3,11.1,8.4,15.3l-8.4,8.4V98L492.7,98z M492.7,60.2l8.3,8.3
				c-4,4.1-7,9.4-8.3,15.2V60.2z M516.9,59.6c-5.8,1.3-11.1,4.3-15.2,8.3l-8.3-8.3H516.9z M512.9,94.8l-3.5,10.4l-7.6,7.6
				c-5.5-5.5-8.9-13-9-21.3h15.5L512.9,94.8L512.9,94.8z M494.3,81.3l12.9,9.3h-14.4c0.1-8.3,3.5-15.9,8.9-21.5l12.2,12.2H494.3z
				 M524.1,59.6l-6.9,21.7H515l-12.8-12.8C507.9,63,515.6,59.6,524.1,59.6L524.1,59.6 M545.8,68.4l-6.3,6.3c-3.6,0-6.9,1.3-9.6,3.3
				l-5.8-18.4C532.6,59.6,540.2,63,545.8,68.4 M553.3,81.8l-0.5,0.4c-0.2-0.2-0.3-0.5-0.5-0.7l0,0c0.2,0.2,0.4,0.5,0.5,0.7
				L553.3,81.8l0.5-0.4h-1.1c-2.8-3.8-7.1-6.3-12.1-6.6l5.8-5.8c4.1,4.1,7,9.3,8.3,15.2C554.3,83.3,553.9,82.5,553.3,81.8
				 M541.1,90.7l11.5-8.3l0,0l0.1-0.1c1.6,2.4,2.6,5.3,2.6,8.4H541.1z M534.1,81.3l5.8-5.8c4.8,0,9.1,2.3,11.8,5.8H534.1L534.1,81.3
				z M554.8,97c-1.2,6-4.2,11.4-8.4,15.7l-6-6C546.9,106.7,552.4,102.7,554.8,97 M540,105.9c-0.1,0-0.3,0-0.4,0l-0.9-0.9l-3.4-10.2
				l4.7-3.4h15.3C554.9,99.5,548.2,105.9,540,105.9 M554.6,59.6l-8.2,8.2c-4.1-4-9.3-6.9-15.1-8.2H554.6z M492,58.8v32l0,0v32.3
				h64.3V58.8H492L492,58.8z"/>
		</g>
	</g>
</g>
</svg>
